<svg xmlns="http://www.w3.org/2000/svg" viewBox="0 0 400 300" width="406" height="306" class="illustration styles_illustrationTablet__1DWOa"><g id="_26_vr_outline" data-name="#26_vr_outline"><path d="M154.33,151H89a1,1,0,0,1-1-1V89.94a1,1,0,0,1,1-1h65.36a1,1,0,0,1,1,1V150A1,1,0,0,1,154.33,151ZM90,149h63.36V90.94H90Z" fill="#dfeaef"></path><polygon points="140.16 167.03 125.82 168.89 121.25 140.78 135.58 138.93 140.16 167.03" fill="#ffc9b0"></polygon><path d="M125.82,169.89a1,1,0,0,1-1-.84l-4.58-28.11a1,1,0,0,1,.19-.76,1,1,0,0,1,.67-.4l14.34-1.85a1,1,0,0,1,1.11.83l4.58,28.12a1,1,0,0,1-.19.75,1,1,0,0,1-.67.4L126,169.88Zm-3.42-28.25,4.26,26.13L139,166.18,134.75,140Z" fill="#093f68"></path><rect x="129.49" y="141.52" width="13.51" height="5.09" rx="2.54" transform="translate(261.68 -9.51) rotate(82.64)" fill="#ffc9b0"></rect><path d="M136.78,151.79a3.55,3.55,0,0,1-3.51-3.09l-1.08-8.36a3.54,3.54,0,0,1,7-.91l1.08,8.36a3.55,3.55,0,0,1-3.52,4Zm-1.07-13.45h-.2a1.55,1.55,0,0,0-1.33,1.73l1.08,8.36h0a1.57,1.57,0,0,0,.58,1,1.55,1.55,0,0,0,2.48-1.43l-1.08-8.35A1.55,1.55,0,0,0,135.71,138.34Z" fill="#093f68"></path><path d="M121.8,136.8A13.84,13.84,0,0,1,120,109.24a13.82,13.82,0,0,1,15.5,12h0a13.84,13.84,0,0,1-12,15.5A15.32,15.32,0,0,1,121.8,136.8Zm0-20.68a6.77,6.77,0,0,0-.89.06,6.84,6.84,0,1,0,7.66,5.9h0a6.84,6.84,0,0,0-6.77-6Z" fill="#093f68"></path><path d="M130.4,164.76a3.5,3.5,0,0,1-3.4-2.67L120.33,135a3.5,3.5,0,0,1,6.8-1.67l6.67,27.11a3.51,3.51,0,0,1-2.57,4.24A4,4,0,0,1,130.4,164.76Z" fill="#093f68"></path><rect x="118.71" y="138.66" width="13.51" height="5.09" rx="2.54" transform="matrix(0.99, -0.13, 0.13, 0.99, -17.05, 17.23)" fill="#ffc9b0"></rect><path d="M121.29,145.29a3.54,3.54,0,0,1-.45-7.06l8.35-1.08a3.54,3.54,0,1,1,.91,7h0l-8.35,1.08Zm8.36-6.17-.2,0-8.36,1.08a1.52,1.52,0,0,0-1,.58,1.58,1.58,0,0,0-.31,1.15,1.55,1.55,0,0,0,1.73,1.33l8.36-1.08a1.54,1.54,0,0,0,1.33-1.73,1.5,1.5,0,0,0-.59-1A1.54,1.54,0,0,0,129.65,139.12Zm.32,4.07h0Z" fill="#093f68"></path><rect x="119.36" y="143.71" width="13.51" height="5.09" rx="2.54" transform="translate(-17.69 17.36) rotate(-7.36)" fill="#ffc9b0"></rect><path d="M121.94,150.34a3.54,3.54,0,0,1-2.8-5.71,3.49,3.49,0,0,1,2.35-1.35l8.36-1.08a3.54,3.54,0,0,1,4,3.06,3.55,3.55,0,0,1-3.06,4h0l-8.35,1.08Zm8.36-6.17h-.2l-8.35,1.08a1.6,1.6,0,0,0-1,.59,1.56,1.56,0,0,0-.31,1.14,1.52,1.52,0,0,0,.59,1,1.56,1.56,0,0,0,1.14.31l8.36-1.08a1.55,1.55,0,0,0,1.33-1.73,1.54,1.54,0,0,0-1.53-1.35Zm.33,4.07h0Z" fill="#093f68"></path><rect x="120.02" y="148.76" width="13.51" height="5.09" rx="2.54" transform="translate(-18.33 17.48) rotate(-7.36)" fill="#ffc9b0"></rect><path d="M122.59,155.39a3.55,3.55,0,0,1-3.51-3.1,3.54,3.54,0,0,1,3.06-4l8.36-1.08a3.54,3.54,0,1,1,.91,7h0l-8.35,1.08A3.55,3.55,0,0,1,122.59,155.39Zm8.37-6.17h-.21l-8.35,1.08a1.52,1.52,0,0,0-1,.59,1.54,1.54,0,0,0,1.42,2.47l8.36-1.08a1.54,1.54,0,0,0,1.33-1.73,1.55,1.55,0,0,0-1.52-1.34Zm.32,4.07h0Z" fill="#093f68"></path><rect x="120.67" y="153.8" width="13.51" height="5.09" rx="2.54" transform="translate(-18.97 17.61) rotate(-7.36)" fill="#ffc9b0"></rect><path d="M123.24,160.43a3.54,3.54,0,0,1-.45-7.06l8.36-1.08a3.58,3.58,0,0,1,2.62.71,3.55,3.55,0,0,1-1.71,6.33h0l-8.36,1.07A3.55,3.55,0,0,1,123.24,160.43Zm8.37-6.17-.2,0-8.36,1.08a1.54,1.54,0,1,0,.39,3.06l8.36-1.08a1.54,1.54,0,0,0,1.33-1.73,1.52,1.52,0,0,0-.58-1A1.56,1.56,0,0,0,131.61,154.26Zm.32,4.07h0Z" fill="#093f68"></path><polygon points="266.96 176.9 280.61 181.64 289.4 154.43 275.65 149.99 266.96 176.9" fill="#ffc9b0"></polygon><path d="M280.61,182.64a.87.87,0,0,1-.32-.06l-13.66-4.74a1,1,0,0,1-.63-1.25l8.7-26.91A1,1,0,0,1,276,149l13.75,4.45a1.06,1.06,0,0,1,.59.49,1,1,0,0,1,.06.77l-8.79,27.2a1,1,0,0,1-.51.59A1,1,0,0,1,280.61,182.64Zm-12.4-6.37L280,180.36l8.17-25.29-11.85-3.83Z" fill="#093f68"></path><path d="M266.2,171.67c-4.17,12.38-5.64,18.66-11.83,19.42s-25-25-26.09-26.22c-.07-.1-.15-.2-.21-.3l0,0a18.07,18.07,0,0,0-12.8-5.3H192.29a18.06,18.06,0,0,0-14.2,6.9s-12.87,24.64-24.61,24.64h0c-7.42,0-11.31-16.19-11.94-23.54l-17.94,1.46c1.22,14.87,8.87,40.05,29.85,40.08h0c8.17,0,15.06-3.29,23-7.9V224.8h52.07V198.22c12.76,7.35,22.4,14.58,32.38,10.81,15.39-5.82,22.84-30.79,22.84-30.79Z" fill="#68e1fd"></path><path d="M228.56,225.8H176.49a1,1,0,0,1-1-1V202.66c-7.88,4.45-14.45,7.17-22,7.17-21.76,0-29.65-25.79-30.89-41a1,1,0,0,1,.91-1.08l17.94-1.46a1,1,0,0,1,1.08.91c.68,7.89,4.58,22.62,10.94,22.63,11,0,23.62-23.86,23.74-24.1a.86.86,0,0,1,.1-.16,19,19,0,0,1,15-7.28h22.94a19,19,0,0,1,13.33,5.42,1,1,0,0,1,.33.29l.17.24c.22.25.68.84,1.66,2.11,15.58,20.1,21.39,24,23.53,23.74,5-.6,6.62-5.55,9.89-15.41l1.11-3.33a1,1,0,0,1,.52-.58,1,1,0,0,1,.78,0l17.58,6.57a1,1,0,0,1,.6,1.22,76.58,76.58,0,0,1-5.72,13.4c-5.14,9.46-11.1,15.53-17.72,18-9.1,3.44-18-1.85-28.28-8-1.13-.67-2.27-1.35-3.45-2V224.8A1,1,0,0,1,228.56,225.8Zm-51.07-2h50.07V198.22a1,1,0,0,1,.5-.87,1,1,0,0,1,1,0c1.71,1,3.36,2,5,2.92,10.26,6.1,18.36,10.92,26.56,7.82,13.13-5,20.45-24.79,21.94-29.25L266.82,173l-.78,2.34c-3.43,10.32-5.31,16-11.55,16.77-4,.52-11.83-7.07-25.35-24.51-.74-1-1.44-1.86-1.59-2l-.09-.12,0-.06a.39.39,0,0,1-.1-.08,17,17,0,0,0-12.09-5H192.29a17,17,0,0,0-13.36,6.45c-1,1.87-13.48,25.09-25.45,25.09-7.88,0-11.94-15.2-12.85-23.47l-16,1.3c1.43,14.63,9,38.14,28.76,38.17,7.67,0,14.07-2.85,22.56-7.76a1,1,0,0,1,1.5.86Z" fill="#093f68"></path><polygon points="199.46 162.38 203.68 209.68 209.51 162.15 199.46 162.38" fill="#70cc40"></polygon><path d="M203.68,210.68h0a1,1,0,0,1-1-.91l-4.22-47.3a1,1,0,0,1,1-1.09l10.06-.23a1,1,0,0,1,.76.33,1,1,0,0,1,.25.79l-5.83,47.53A1,1,0,0,1,203.68,210.68Zm-3.13-47.32,3.29,36.83,4.54-37Z" fill="#093f68"></path><path d="M176.49,201.93a1,1,0,0,1-1-1V182.75a1,1,0,0,1,2,0v18.18A1,1,0,0,1,176.49,201.93Z" fill="#093f68"></path><path d="M199.44,156.48h10.05a0,0,0,0,1,0,0v5.79a4.27,4.27,0,0,1-4.27,4.27h-1.52a4.27,4.27,0,0,1-4.27-4.27v-5.79A0,0,0,0,1,199.44,156.48Z" transform="translate(-3.71 4.81) rotate(-1.34)" fill="#ffc9b0"></path><path d="M203.72,167.55a5.27,5.27,0,0,1-5.26-5.15l-.14-5.78a1,1,0,0,1,1-1l10-.24a1,1,0,0,1,.71.28.93.93,0,0,1,.31.7l.14,5.78a5.28,5.28,0,0,1-5.14,5.39l-1.52,0Zm-3.37-10,.11,4.79a3.27,3.27,0,0,0,3.34,3.19l1.52,0h0a3.27,3.27,0,0,0,3.19-3.34l-.11-4.78Z" fill="#093f68"></path><path d="M170.4,129.5a38.68,38.68,0,0,1-4.32-10.26c-2.83-9.41-3.29-18.1-3.09-27.95.08-3.83.32-7.74,1.8-11.27,2.11-5,6.58-8.75,11.56-10.88s10.47-2.81,15.89-3c3.91-.14,7.82-.61,11.66-.77,4.21-.17,8.29,0,12.38-1.27,4.57-1.45,8.85-4.75,10.16-9.37a17.22,17.22,0,0,1,2.88,16,18.66,18.66,0,0,0,5.47-9.26c2.06,2.84,3,6.32,3.87,9.72s1.6,7.16-.59,9.75a13.22,13.22,0,0,0,6.73-6.84c3.89,8-1.83,15.56-4,23-1.87,6.37,0,12.83-1.6,19.12-1.52,5.74-3.72,11.78-8.53,15.6-4.53,3.6-10.58,4.56-16.34,5.14a191.42,191.42,0,0,1-22.59.92c-6.6-.11-13.75-.79-18.64-5.23A16.58,16.58,0,0,1,170.4,129.5Z" fill="#725858"></path><path d="M195.08,138.89c-1.13,0-2.26,0-3.38,0-7-.12-14.22-.87-19.3-5.49a18.05,18.05,0,0,1-2.83-3.31h0a38.88,38.88,0,0,1-4.44-10.53c-2.89-9.57-3.34-18.22-3.14-28.26.08-3.65.29-7.86,1.88-11.64,2-4.83,6.44-9,12.09-11.41s12-2.94,16.25-3.09c2-.07,4-.23,6-.39s3.8-.3,5.68-.38l2.45-.07A34.28,34.28,0,0,0,216,63.14c3.75-1.18,8.21-4.09,9.51-8.69a1,1,0,0,1,.76-.71,1,1,0,0,1,1,.35,18.38,18.38,0,0,1,3.85,13.11,17.65,17.65,0,0,0,2.75-6,1,1,0,0,1,1.78-.35c2.2,3,3.17,6.76,4,10.06a17.14,17.14,0,0,1,.7,7.45,12.11,12.11,0,0,0,3.55-4.68,1,1,0,0,1,1.82,0c3.06,6.29.6,12.22-1.79,17.95a57.9,57.9,0,0,0-2.18,5.8,31.83,31.83,0,0,0-.84,9.57,35,35,0,0,1-.76,9.51c-1.5,5.69-3.72,12-8.86,16.13-4.87,3.87-11.26,4.79-16.87,5.35C208,138.57,201.52,138.89,195.08,138.89ZM171.23,129a16.17,16.17,0,0,0,2.51,2.94c4.6,4.17,11.36,4.86,18,5a193.83,193.83,0,0,0,22.47-.92c5.32-.53,11.38-1.39,15.82-4.92,4.69-3.73,6.76-9.71,8.18-15.08a33,33,0,0,0,.69-9,34,34,0,0,1,.92-10.16,58.89,58.89,0,0,1,2.26-6c2-4.9,4-9.55,2.59-14.34a14.11,14.11,0,0,1-6.19,5.35,1,1,0,0,1-1.21-.31,1,1,0,0,1,0-1.25c1.82-2.15,1.26-5.52.4-8.85a35.81,35.81,0,0,0-2.6-7.57A19.66,19.66,0,0,1,230,71.42a1,1,0,0,1-1.62-1,16.3,16.3,0,0,0-1.66-13.54c-1.74,3.72-5.4,6.72-10.13,8.21a35.86,35.86,0,0,1-10.22,1.25l-2.42.07c-1.84.08-3.75.23-5.6.38s-4,.32-6.06.39c-4.08.15-10.13.61-15.54,2.93-5.17,2.22-9.19,6-11,10.34-1.46,3.46-1.66,7.44-1.73,10.91-.2,9.85.24,18.32,3,27.65a37.59,37.59,0,0,0,4.19,10Z" fill="#093f68"></path><ellipse cx="175.02" cy="131.04" rx="9.77" ry="8.42" transform="translate(-3.01 4.11) rotate(-1.34)" fill="#ffc9b0"></ellipse><path d="M174.94,140.46a11.52,11.52,0,0,1-7.33-2.53,8.82,8.82,0,0,1-3.36-6.64c-.12-5.19,4.61-9.52,10.55-9.66a11.62,11.62,0,0,1,7.62,2.53,8.8,8.8,0,0,1,3.36,6.63c.12,5.19-4.61,9.53-10.55,9.67Zm.15-16.84h-.25c-4.83.11-8.69,3.53-8.59,7.62a6.86,6.86,0,0,0,2.63,5.13,9.64,9.64,0,0,0,6.31,2.08c4.83-.12,8.69-3.53,8.59-7.62a6.83,6.83,0,0,0-2.63-5.14A9.55,9.55,0,0,0,175.09,123.62Z" fill="#093f68"></path><ellipse cx="231.94" cy="129.71" rx="9.77" ry="8.42" transform="translate(-2.96 5.44) rotate(-1.34)" fill="#ffc9b0"></ellipse><path d="M231.87,139.13a11.52,11.52,0,0,1-7.33-2.53,8.82,8.82,0,0,1-3.36-6.63c-.12-5.2,4.61-9.53,10.55-9.67a11.62,11.62,0,0,1,7.62,2.53,8.63,8.63,0,0,1,.31,13.42,11.6,11.6,0,0,1-7.5,2.88ZM232,122.3h-.25c-4.83.11-8.69,3.53-8.59,7.62a6.82,6.82,0,0,0,2.63,5.13,9.91,9.91,0,0,0,12.51-.29,6.62,6.62,0,0,0-.24-10.38A9.49,9.49,0,0,0,232,122.3Z" fill="#093f68"></path><path d="M204.38,157.8A29.46,29.46,0,0,1,174.24,129c-.17-7.28-3.53-21.92,5.83-25.12,12.27-4.18,28.65-3,41.25-1.29,2.93.39,6.26,1.06,8.63,3,3.32,2.66,2.81,5.64,2.9,9.52l.29,12.56A29.46,29.46,0,0,1,204.38,157.8Z" fill="#ffc9b0"></path><path d="M203.67,158.81a30.47,30.47,0,0,1-30.43-29.75c0-1.28-.16-2.82-.3-4.45-.68-7.92-1.62-18.77,6.81-21.64,9.82-3.35,23.46-3.79,41.7-1.35,3.07.42,6.54,1.11,9.12,3.18,3.25,2.6,3.26,5.6,3.27,8.77,0,.49,0,1,0,1.51l.29,12.56A30.49,30.49,0,0,1,204.4,158.8Zm-3-56.74c-8.12,0-14.84.93-20.3,2.79-6.94,2.37-6.08,12.32-5.46,19.58.14,1.66.28,3.23.31,4.57a28.46,28.46,0,1,0,56.9-1.33l-.29-12.56c0-.53,0-1.05,0-1.55,0-3.13,0-5.21-2.52-7.21-2.19-1.76-5.34-2.38-8.13-2.75A155,155,0,0,0,200.69,102.07Z" fill="#093f68"></path><ellipse cx="204.23" cy="143.71" rx="3.51" ry="7.18" fill="#093f68"></ellipse><path d="M204.23,151.88c-2.57,0-4.51-3.51-4.51-8.17s1.94-8.18,4.51-8.18,4.51,3.51,4.51,8.18S206.8,151.88,204.23,151.88Zm0-14.35c-1,0-2.51,2.4-2.51,6.18s1.49,6.17,2.51,6.17,2.51-2.4,2.51-6.17S205.26,137.53,204.23,137.53Z" fill="#093f68"></path><path d="M221.55,89.5v6.43h-12.1a4.87,4.87,0,0,0,.72-2.57,5,5,0,1,0-10,0,4.86,4.86,0,0,0,.71,2.57H188.79V89.5c0-3.39,7.75-4.86,7.75-4.86l1.14-19a3.61,3.61,0,0,1,3.59-3.27h7.8a3.61,3.61,0,0,1,3.59,3.27l1.14,19S221.55,86.11,221.55,89.5Z" fill="#ffbc0e"></path><path d="M221.55,96.93h-12.1a1,1,0,0,1-.85-1.52,3.93,3.93,0,0,0,.57-2,4,4,0,1,0-8,0,3.92,3.92,0,0,0,.56,2,1,1,0,0,1-.85,1.52H188.79a1,1,0,0,1-1-1V89.5c0-3.51,5.62-5.17,7.8-5.68l1.09-18.23a4.59,4.59,0,0,1,4.59-4.21h7.8a4.57,4.57,0,0,1,4.58,4.17l1.1,18.27c2.18.51,7.8,2.17,7.8,5.68v6.43A1,1,0,0,1,221.55,96.93Zm-10.59-2h9.59V89.5c0-1.93-4.68-3.45-6.94-3.88a1,1,0,0,1-.81-.92l-1.14-19a2.6,2.6,0,0,0-2.59-2.33h-7.8a2.61,2.61,0,0,0-2.6,2.36l-1.13,19a1,1,0,0,1-.81.92c-2.27.43-6.94,1.95-6.94,3.88v5.43h9.58a6.25,6.25,0,0,1-.2-1.57,6,6,0,1,1,12,0A5.83,5.83,0,0,1,211,94.93Z" fill="#093f68"></path><path d="M249.46,102.09v22a8.74,8.74,0,0,1-8.75,8.74H210.45a6.79,6.79,0,0,0-13.57,0H166.61a8.74,8.74,0,0,1-8.75-8.74v-22a8.75,8.75,0,0,1,8.75-8.75h74.1A8.75,8.75,0,0,1,249.46,102.09Z" fill="#f56132"></path><path d="M240.71,133.8H210.45a1,1,0,0,1-1-1,5.79,5.79,0,0,0-11.57,0,1,1,0,0,1-1,1H166.61a9.76,9.76,0,0,1-9.75-9.74v-22a9.76,9.76,0,0,1,9.75-9.75h74.1a9.76,9.76,0,0,1,9.75,9.75v22A9.75,9.75,0,0,1,240.71,133.8Zm-29.33-2h29.33a7.75,7.75,0,0,0,7.75-7.74v-22a7.76,7.76,0,0,0-7.75-7.75h-74.1a7.76,7.76,0,0,0-7.75,7.75v22a7.75,7.75,0,0,0,7.75,7.74h29.33a7.79,7.79,0,0,1,15.44,0Z" fill="#093f68"></path><circle cx="172.65" cy="103.58" r="3.85" fill="#093f68"></circle><circle cx="172.65" cy="122.56" r="3.85" fill="#093f68"></circle><circle cx="234.68" cy="103.58" r="3.85" fill="#093f68"></circle><circle cx="234.68" cy="122.56" r="3.85" fill="#093f68"></circle><rect x="268.05" y="150.05" width="13.51" height="5.09" rx="2.54" transform="translate(494.95 -71.78) rotate(105.41)" fill="#ffc9b0"></rect><path d="M273.69,160.2a3.38,3.38,0,0,1-.94-.13,3.55,3.55,0,0,1-2.48-4.36l2.24-8.12a3.55,3.55,0,1,1,6.84,1.88l-2.24,8.12h0A3.57,3.57,0,0,1,273.69,160.2ZM275.93,147a1.55,1.55,0,0,0-1.49,1.14l-2.24,8.12a1.55,1.55,0,1,0,3,.82l2.24-8.12a1.56,1.56,0,0,0-1.08-1.9A1.51,1.51,0,0,0,275.93,147Zm.21,10.35h0Z" fill="#093f68"></path><path d="M292.09,147.56A13.85,13.85,0,0,1,278.72,130h0a13.84,13.84,0,1,1,13.37,17.52Zm-6.62-15.66a6.84,6.84,0,0,0,4.78,8.41,6.83,6.83,0,0,0,8.41-4.77,6.84,6.84,0,1,0-13.19-3.64Z" fill="#093f68"></path><path d="M278.19,173.93a3.5,3.5,0,0,1-3.25-4.8l10.4-25.91a3.5,3.5,0,0,1,6.5,2.61l-10.4,25.91A3.5,3.5,0,0,1,278.19,173.93Z" fill="#093f68"></path><rect x="279.12" y="148.73" width="13.51" height="5.09" rx="2.54" transform="translate(521.28 373.08) rotate(-164.59)" fill="#ffc9b0"></rect><path d="M289.94,155.94a3.38,3.38,0,0,1-.94-.13l-8.12-2.24h0a3.54,3.54,0,1,1,1.88-6.83l8.12,2.24a3.48,3.48,0,0,1,2.14,1.66,3.54,3.54,0,0,1-3.08,5.3Zm-8.53-4.3,8.12,2.24a1.55,1.55,0,1,0,.82-3l-8.12-2.24a1.55,1.55,0,1,0-.82,3Z" fill="#093f68"></path><rect x="277.77" y="153.63" width="13.51" height="5.09" rx="2.54" transform="translate(517.32 382.36) rotate(-164.59)" fill="#ffc9b0"></rect><path d="M288.6,160.84a3.4,3.4,0,0,1-1-.13l-8.12-2.24a3.52,3.52,0,0,1-2.15-1.66,3.56,3.56,0,0,1-.33-2.69,3.46,3.46,0,0,1,1.67-2.14,3.51,3.51,0,0,1,2.69-.34l8.12,2.24a3.56,3.56,0,0,1,2.48,4.36,3.55,3.55,0,0,1-1.67,2.14A3.49,3.49,0,0,1,288.6,160.84Zm-8.14-7.33a1.52,1.52,0,0,0-1.48,1.14,1.54,1.54,0,0,0,.14,1.17,1.56,1.56,0,0,0,.94.73h0l8.12,2.24a1.59,1.59,0,0,0,1.17-.15,1.52,1.52,0,0,0,.73-.93,1.49,1.49,0,0,0-.15-1.17,1.52,1.52,0,0,0-.93-.73l-8.12-2.24A1.52,1.52,0,0,0,280.46,153.51Z" fill="#093f68"></path><rect x="276.42" y="158.54" width="13.51" height="5.09" rx="2.54" transform="translate(513.36 391.63) rotate(-164.59)" fill="#ffc9b0"></rect><path d="M287.24,165.75a3.38,3.38,0,0,1-.94-.13l-8.13-2.24h0a3.54,3.54,0,0,1,1.89-6.83l8.12,2.24a3.54,3.54,0,0,1-.94,7Zm-8.54-4.3,8.13,2.24a1.55,1.55,0,1,0,.82-3l-8.12-2.24a1.55,1.55,0,0,0-.83,3Z" fill="#093f68"></path><rect x="275.07" y="163.45" width="13.51" height="5.09" rx="2.54" transform="translate(509.4 400.91) rotate(-164.59)" fill="#ffc9b0"></rect><path d="M285.89,170.66a3.88,3.88,0,0,1-.95-.13l-8.12-2.24a3.55,3.55,0,0,1-2.14-1.67,3.56,3.56,0,0,1,1.33-4.83,3.51,3.51,0,0,1,2.69-.34l8.13,2.24a3.55,3.55,0,0,1,.81,6.5A3.64,3.64,0,0,1,285.89,170.66Zm-8.13-7.34a1.48,1.48,0,0,0-.76.21,1.52,1.52,0,0,0-.73.93,1.54,1.54,0,0,0,.15,1.17,1.52,1.52,0,0,0,.93.73h0l8.12,2.24a1.52,1.52,0,0,0,1.18-.15,1.5,1.5,0,0,0,.72-.93,1.54,1.54,0,0,0-.14-1.17,1.57,1.57,0,0,0-.93-.73l-8.13-2.24A1.4,1.4,0,0,0,277.76,163.32Z" fill="#093f68"></path><path d="M228.56,199.22a1,1,0,0,1-1-1V182.75a1,1,0,0,1,2,0v15.47A1,1,0,0,1,228.56,199.22Z" fill="#093f68"></path><rect x="176.49" y="224.8" width="52.07" height="17.73" fill="#093f68"></rect><path d="M228.56,243.53H176.49a1,1,0,0,1-1-1V224.8a1,1,0,0,1,1-1h52.07a1,1,0,0,1,1,1v17.73A1,1,0,0,1,228.56,243.53Zm-51.07-2h50.07V225.8H177.49Z" fill="#093f68"></path><path d="M253.28,151a1,1,0,0,1-1-1v-6.28a1,1,0,0,1,2,0V150A1,1,0,0,1,253.28,151Z" fill="#dfeaef"></path><path d="M253.28,162a1,1,0,0,1-1-1v-6.28a1,1,0,0,1,2,0V161A1,1,0,0,1,253.28,162Z" fill="#dfeaef"></path><path d="M261.9,153.33h-6.28a1,1,0,0,1,0-2h6.28a1,1,0,0,1,0,2Z" fill="#dfeaef"></path><path d="M250.94,153.33h-6.28a1,1,0,0,1,0-2h6.28a1,1,0,0,1,0,2Z" fill="#dfeaef"></path><path d="M107.81,180.3a1,1,0,0,1-1-1V173a1,1,0,0,1,2,0v6.28A1,1,0,0,1,107.81,180.3Z" fill="#dfeaef"></path><path d="M107.81,191.26a1,1,0,0,1-1-1V184a1,1,0,1,1,2,0v6.28A1,1,0,0,1,107.81,191.26Z" fill="#dfeaef"></path><path d="M116.43,182.64h-6.28a1,1,0,1,1,0-2h6.28a1,1,0,0,1,0,2Z" fill="#dfeaef"></path><path d="M105.47,182.64H99.19a1,1,0,0,1,0-2h6.28a1,1,0,1,1,0,2Z" fill="#dfeaef"></path><path d="M302.41,180.3a1,1,0,0,1-1-1V173a1,1,0,0,1,2,0v6.28A1,1,0,0,1,302.41,180.3Z" fill="#dfeaef"></path><path d="M302.41,191.26a1,1,0,0,1-1-1V184a1,1,0,1,1,2,0v6.28A1,1,0,0,1,302.41,191.26Z" fill="#dfeaef"></path><path d="M311,182.64h-6.28a1,1,0,0,1,0-2H311a1,1,0,0,1,0,2Z" fill="#dfeaef"></path><path d="M300.07,182.64h-6.28a1,1,0,0,1,0-2h6.28a1,1,0,0,1,0,2Z" fill="#dfeaef"></path><path d="M296.77,243.53H252.84a1,1,0,0,1-1-1V220a1,1,0,0,1,1-1h43.93a1,1,0,0,1,1,1v22.51A1,1,0,0,1,296.77,243.53Zm-42.93-2h41.93V221H253.84Z" fill="#dfeaef"></path><path d="M126.77,231.36A11.34,11.34,0,1,1,138.11,220,11.35,11.35,0,0,1,126.77,231.36Zm0-20.68a9.34,9.34,0,1,0,9.34,9.34A9.35,9.35,0,0,0,126.77,210.68Z" fill="#dfeaef"></path></g></svg>